<?xml version="1.0" encoding="utf-8"?>
<!-- Generator: Adobe Illustrator 24.1.0, SVG Export Plug-In . SVG Version: 6.00 Build 0)  -->
<svg version="1.1" id="Layer_1" xmlns="http://www.w3.org/2000/svg" xmlns:xlink="http://www.w3.org/1999/xlink" x="0px" y="0px"
	 viewBox="0 0 423.7 63.7" style="enable-background:new 0 0 423.7 63.7;" xml:space="preserve">
<style type="text/css">
	.st0{fill:url(#SVGID_1_);}
</style>
<linearGradient id="SVGID_1_" gradientUnits="userSpaceOnUse" x1="184.5458" y1="88.5683" x2="244.3658" y2="-44.0657" gradientTransform="matrix(1 0 0 -1 0 60.304)">
	<stop  offset="0" style="stop-color:#ED2125"/>
	<stop  offset="1" style="stop-color:#8AC7CC"/>
	<stop  offset="1" style="stop-color:#8AC7CC"/>
</linearGradient>
<path class="st0" d="M6.3,25H0v-6.5h6.3v-4.4c0-2.1,0.1-4.1,0.4-5.8c0.3-1.7,0.9-3.2,1.7-4.5c0.9-1.2,2-2.2,3.5-2.8
	c1.5-0.7,3.4-1,5.8-1c1.7,0,3.4,0.1,4.9,0.4L22.1,7c-0.6-0.1-1.1-0.2-1.6-0.3c-0.5-0.1-1-0.1-1.6-0.1c-1.1,0-1.9,0.2-2.6,0.5
	c-0.6,0.3-1.2,0.8-1.5,1.4c-0.3,0.6-0.6,1.2-0.7,2C14.1,11.2,14,12,14,12.9v5.6h7.1V25H14v24.2H6.3V25z M28.8,18.4h7.7v30.7h-7.7
	V18.4z M27.7,8c0-1.2,0.4-2.3,1.3-3.2c0.9-0.9,2.1-1.4,3.5-1.4c1.4,0,2.6,0.4,3.5,1.3c1,0.9,1.5,1.9,1.5,3.3s-0.5,2.4-1.5,3.3
	c-0.9,0.9-2.1,1.3-3.5,1.3c-1.4,0-2.6-0.4-3.5-1.3C28.1,10.3,27.7,9.2,27.7,8z M45.5,18.4h7.3v4.9h0.1c0.7-1.5,1.8-2.9,3.3-4
	c1.5-1.2,3.5-1.7,6.1-1.7c2,0,3.8,0.3,5.2,1c1.5,0.7,2.6,1.6,3.5,2.7c0.9,1.1,1.5,2.4,1.9,3.8c0.4,1.5,0.6,3,0.6,4.5v19.4h-7.7V33.6
	c0-0.9,0-1.8-0.1-2.8c-0.1-1.1-0.3-2-0.7-2.9c-0.3-0.9-0.9-1.7-1.7-2.3c-0.8-0.6-1.8-1-3.1-1c-1.3,0-2.4,0.2-3.3,0.6
	c-0.9,0.4-1.6,1-2.2,1.7c-0.6,0.7-1,1.6-1.2,2.5c-0.3,0.9-0.4,1.9-0.4,2.9v16.8h-7.7V18.4z M105.3,44.5h-0.1
	c-1.1,1.9-2.6,3.2-4.5,4.1c-1.9,0.9-3.9,1.3-6.1,1.3c-2.4,0-4.5-0.4-6.4-1.2c-1.8-0.9-3.4-2-4.7-3.5c-1.3-1.5-2.3-3.2-3-5.1
	c-0.7-2-1-4.1-1-6.3s0.4-4.4,1.1-6.3c0.7-2,1.7-3.7,3-5.1c1.3-1.5,2.9-2.6,4.7-3.4c1.8-0.9,3.8-1.3,6-1.3c1.4,0,2.7,0.1,3.8,0.4
	c1.1,0.3,2.1,0.7,2.9,1.2c0.9,0.5,1.6,1,2.2,1.5c0.6,0.5,1.1,1,1.5,1.5h0.2V0.8h7.7v48.4h-7.3V44.5z M87.1,33.8
	c0,1.2,0.2,2.3,0.6,3.5c0.4,1.1,1,2.1,1.8,2.9c0.8,0.9,1.8,1.5,2.9,2c1.1,0.5,2.4,0.8,3.8,0.8s2.7-0.3,3.8-0.8c1.1-0.5,2-1.2,2.8-2
	c0.8-0.9,1.4-1.8,1.8-2.9c0.4-1.1,0.6-2.3,0.6-3.5c0-1.2-0.2-2.3-0.6-3.5c-0.4-1.1-1-2.1-1.8-2.9c-0.8-0.9-1.7-1.5-2.8-2
	c-1.1-0.5-2.4-0.8-3.8-0.8s-2.7,0.3-3.8,0.8c-1.1,0.5-2.1,1.2-2.9,2c-0.8,0.9-1.4,1.8-1.8,2.9C87.3,31.4,87.1,32.6,87.1,33.8z
	 M161.1,44.9h-0.2c-1.1,1.7-2.5,3-4.2,3.8c-1.7,0.8-3.6,1.2-5.6,1.2c-1.4,0-2.8-0.2-4.2-0.6c-1.3-0.4-2.5-1-3.6-1.7
	c-1-0.8-1.9-1.7-2.5-2.9s-1-2.5-1-4c0-1.7,0.3-3.1,0.9-4.2c0.6-1.2,1.4-2.2,2.4-2.9c1-0.8,2.2-1.5,3.5-1.9c1.3-0.5,2.7-0.8,4.1-1
	c1.5-0.3,2.9-0.4,4.4-0.4c1.5-0.1,2.8-0.1,4.1-0.1h1.9v-0.8c0-1.9-0.7-3.3-2-4.3c-1.3-1-3-1.5-5.1-1.5c-1.6,0-3.1,0.3-4.5,0.9
	c-1.4,0.6-2.6,1.3-3.6,2.3l-4-4c1.7-1.7,3.7-3,6-3.8c2.3-0.8,4.7-1.2,7.1-1.2c2.2,0,4,0.3,5.5,0.8c1.5,0.5,2.7,1.1,3.7,1.9
	c1,0.8,1.7,1.7,2.2,2.7c0.6,1,0.9,2,1.2,3c0.3,1,0.4,2,0.4,3c0,0.9,0.1,1.8,0.1,2.5v17.7h-6.9V44.9z M160.7,35.4h-1.6
	c-1.1,0-2.3,0-3.6,0.1c-1.3,0.1-2.6,0.3-3.8,0.6c-1.2,0.3-2.1,0.8-2.9,1.4c-0.8,0.6-1.2,1.5-1.2,2.6c0,0.7,0.1,1.3,0.4,1.9
	c0.3,0.5,0.8,0.9,1.3,1.2c0.5,0.3,1.1,0.6,1.7,0.8c0.6,0.1,1.3,0.2,1.9,0.2c2.6,0,4.6-0.6,5.8-1.9c1.3-1.3,1.9-3,1.9-5.2V35.4z
	 M204.7,22.7h0.1c0.6-1.3,1.6-2.4,3.1-3.5c1.5-1.1,3.5-1.6,5.9-1.6c2,0,3.8,0.3,5.2,1c1.5,0.7,2.6,1.6,3.5,2.7
	c0.9,1.1,1.5,2.4,1.9,3.8c0.4,1.5,0.6,3,0.6,4.5v19.4h-7.7V33.6c0-0.9,0-1.8-0.1-2.8c-0.1-1.1-0.3-2-0.7-2.9
	c-0.3-0.9-0.9-1.7-1.7-2.3c-0.8-0.6-1.8-1-3.1-1c-1.3,0-2.4,0.2-3.3,0.6c-0.9,0.4-1.6,1-2.2,1.7c-0.6,0.7-1,1.6-1.2,2.5
	c-0.3,0.9-0.4,1.9-0.4,2.9v16.8H197V0.8h7.7V22.7z M238.9,36.5c0.3,2.3,1.2,4.1,2.7,5.4c1.5,1.3,3.4,1.9,5.6,1.9
	c1.9,0,3.5-0.4,4.8-1.2c1.3-0.8,2.5-1.8,3.5-3l5.5,4.2c-1.8,2.2-3.8,3.8-6,4.7c-2.2,0.9-4.5,1.4-7,1.4c-2.3,0-4.5-0.4-6.5-1.2
	c-2-0.8-3.8-1.9-5.3-3.3c-1.5-1.4-2.7-3.1-3.6-5.1c-0.9-2-1.3-4.2-1.3-6.7s0.4-4.6,1.3-6.6c0.9-2,2.1-3.7,3.6-5.1
	c1.5-1.4,3.3-2.5,5.3-3.3s4.2-1.2,6.5-1.2c2.1,0,4.1,0.4,5.8,1.2c1.8,0.7,3.3,1.8,4.5,3.2c1.3,1.4,2.3,3.2,2.9,5.2
	c0.7,2,1.1,4.4,1.1,7.1v2.1H238.9z M254.6,30.7c0-2.3-0.7-4-2.1-5.3c-1.4-1.3-3.3-2-5.7-2c-2.3,0-4.1,0.7-5.5,2
	c-1.3,1.3-2.1,3.1-2.4,5.3H254.6z M269.2,0.8h7.7v48.4h-7.7V0.8z M286,18.4h7.3V23h0.1c1.1-1.9,2.6-3.2,4.5-4.1
	c1.9-0.9,3.9-1.3,6.1-1.3c2.3,0,4.5,0.4,6.3,1.3c1.9,0.8,3.5,1.9,4.8,3.4c1.3,1.5,2.3,3.2,3,5.1c0.7,2,1,4.1,1,6.3s-0.4,4.4-1.1,6.3
	c-0.7,2-1.7,3.7-3.1,5.1c-1.3,1.5-2.8,2.6-4.7,3.5c-1.8,0.8-3.8,1.2-6,1.2c-1.5,0-2.7-0.1-3.8-0.4s-2.1-0.7-2.9-1.2s-1.6-1-2.2-1.5
	c-0.6-0.6-1.1-1.1-1.5-1.6h-0.2v18.5H286V18.4z M311.5,33.8c0-1.2-0.2-2.3-0.6-3.5c-0.4-1.1-1-2.1-1.8-2.9c-0.8-0.9-1.7-1.5-2.8-2
	c-1.1-0.5-2.4-0.8-3.8-0.8c-1.4,0-2.7,0.3-3.8,0.8c-1.1,0.5-2.1,1.2-2.9,2c-0.8,0.9-1.4,1.8-1.8,2.9c-0.4,1.1-0.6,2.3-0.6,3.5
	c0,1.2,0.2,2.3,0.6,3.5c0.4,1.1,1,2.1,1.8,2.9c0.8,0.9,1.8,1.5,2.9,2c1.1,0.5,2.4,0.8,3.8,0.8c1.4,0,2.7-0.3,3.8-0.8
	c1.1-0.5,2-1.2,2.8-2c0.8-0.9,1.4-1.8,1.8-2.9C311.2,36.1,311.5,35,311.5,33.8z M325.4,0.8h7.7v48.4h-7.7V0.8z M341.6,18.4h7.7v30.7
	h-7.7V18.4z M340.6,8c0-1.2,0.4-2.3,1.3-3.2c0.9-0.9,2.1-1.4,3.5-1.4c1.4,0,2.6,0.4,3.5,1.3c1,0.9,1.5,1.9,1.5,3.3s-0.5,2.4-1.5,3.3
	c-0.9,0.9-2.1,1.3-3.5,1.3c-1.4,0-2.6-0.4-3.5-1.3C341,10.3,340.6,9.2,340.6,8z M359,18.4h7.3v4.9h0.1c0.7-1.5,1.8-2.9,3.3-4
	c1.5-1.2,3.5-1.7,6.1-1.7c2,0,3.8,0.3,5.2,1c1.5,0.7,2.6,1.6,3.5,2.7c0.9,1.1,1.5,2.4,1.9,3.8c0.4,1.5,0.6,3,0.6,4.5v19.4h-7.7V33.6
	c0-0.9,0-1.8-0.1-2.8c-0.1-1.1-0.3-2-0.7-2.9c-0.3-0.9-0.9-1.7-1.7-2.3c-0.8-0.6-1.8-1-3.1-1c-1.3,0-2.4,0.2-3.3,0.6
	c-0.9,0.4-1.6,1-2.2,1.7c-0.6,0.7-1,1.6-1.2,2.5c-0.3,0.9-0.4,1.9-0.4,2.9v16.8H359V18.4z M400.3,36.5c0.3,2.3,1.2,4.1,2.7,5.4
	c1.5,1.3,3.4,1.9,5.6,1.9c1.9,0,3.5-0.4,4.8-1.2c1.3-0.8,2.5-1.8,3.5-3l5.5,4.2c-1.8,2.2-3.8,3.8-6,4.7c-2.2,0.9-4.5,1.4-7,1.4
	c-2.3,0-4.5-0.4-6.5-1.2c-2-0.8-3.8-1.9-5.3-3.3c-1.5-1.4-2.7-3.1-3.6-5.1c-0.9-2-1.3-4.2-1.3-6.7s0.4-4.6,1.3-6.6
	c0.9-2,2.1-3.7,3.6-5.1c1.5-1.4,3.3-2.5,5.3-3.3s4.2-1.2,6.5-1.2c2.1,0,4.1,0.4,5.8,1.2c1.8,0.7,3.3,1.8,4.5,3.2
	c1.3,1.4,2.3,3.2,2.9,5.2c0.7,2,1.1,4.4,1.1,7.1v2.1H400.3z M416,30.7c0-2.3-0.7-4-2.1-5.3c-1.4-1.3-3.3-2-5.7-2
	c-2.3,0-4.1,0.7-5.5,2c-1.3,1.3-2.1,3.1-2.4,5.3H416z"/>
</svg>
