<svg width="441" height="65" viewBox="0 0 441 65" fill="none" xmlns="http://www.w3.org/2000/svg">
<path d="M6.604 25.808H0.268V19.28H6.604V14.928C6.604 12.7947 6.75333 10.8747 7.052 9.168C7.35067 7.41867 7.90533 5.92533 8.716 4.688C9.56933 3.45066 10.7427 2.512 12.236 1.872C13.7293 1.18933 15.6707 0.848 18.06 0.848C19.8093 0.848 21.4307 0.997332 22.924 1.296L22.412 7.824C21.8573 7.696 21.324 7.58933 20.812 7.504C20.3 7.41867 19.7667 7.376 19.212 7.376C18.1453 7.376 17.292 7.54667 16.652 7.888C16.012 8.22933 15.5 8.69866 15.116 9.296C14.7747 9.85066 14.54 10.512 14.412 11.28C14.3267 12.048 14.284 12.8587 14.284 13.712V19.28H21.388V25.808H14.284V50H6.604V25.808ZM26.38 19.28H34.06V50H26.38V19.28ZM25.356 8.848C25.356 7.61066 25.804 6.544 26.7 5.648C27.6387 4.70933 28.812 4.24 30.22 4.24C31.628 4.24 32.8013 4.688 33.74 5.584C34.7213 6.43733 35.212 7.52533 35.212 8.848C35.212 10.1707 34.7213 11.28 33.74 12.176C32.8013 13.0293 31.628 13.456 30.22 13.456C28.812 13.456 27.6387 13.008 26.7 12.112C25.804 11.1733 25.356 10.0853 25.356 8.848ZM43.2895 19.28H50.5855V24.208H50.7135C51.4388 22.672 52.5482 21.3493 54.0415 20.24C55.5348 19.088 57.5615 18.512 60.1215 18.512C62.1695 18.512 63.8975 18.8533 65.3055 19.536C66.7562 20.2187 67.9295 21.1147 68.8255 22.224C69.7215 23.3333 70.3615 24.6133 70.7455 26.064C71.1295 27.5147 71.3215 29.0293 71.3215 30.608V50H63.6415V34.448C63.6415 33.5947 63.5988 32.656 63.5135 31.632C63.4282 30.5653 63.1935 29.584 62.8095 28.688C62.4682 27.7493 61.9135 26.9813 61.1455 26.384C60.3775 25.744 59.3322 25.424 58.0095 25.424C56.7295 25.424 55.6415 25.6373 54.7455 26.064C53.8922 26.4907 53.1668 27.0667 52.5695 27.792C52.0148 28.5173 51.6095 29.3493 51.3535 30.288C51.0975 31.2267 50.9695 32.208 50.9695 33.232V50H43.2895V19.28ZM105.86 45.392H105.732C104.622 47.2693 103.129 48.6347 101.252 49.488C99.3742 50.3413 97.3475 50.768 95.1715 50.768C92.7822 50.768 90.6488 50.3627 88.7715 49.552C86.9368 48.6987 85.3582 47.5467 84.0355 46.096C82.7128 44.6453 81.7102 42.9387 81.0275 40.976C80.3448 39.0133 80.0035 36.9013 80.0035 34.64C80.0035 32.3787 80.3662 30.2667 81.0915 28.304C81.8168 26.3413 82.8195 24.6347 84.0995 23.184C85.4222 21.7333 87.0008 20.6027 88.8355 19.792C90.6702 18.9387 92.6755 18.512 94.8515 18.512C96.3022 18.512 97.5822 18.6613 98.6915 18.96C99.8008 19.2587 100.782 19.6427 101.636 20.112C102.489 20.5813 103.214 21.0933 103.812 21.648C104.409 22.16 104.9 22.672 105.284 23.184H105.476V1.616H113.156V50H105.86V45.392ZM87.6835 34.64C87.6835 35.8347 87.8755 36.9867 88.2595 38.096C88.6862 39.2053 89.2835 40.1867 90.0515 41.04C90.8622 41.8933 91.8222 42.576 92.9315 43.088C94.0408 43.6 95.2995 43.856 96.7075 43.856C98.1155 43.856 99.3742 43.6 100.484 43.088C101.593 42.576 102.532 41.8933 103.3 41.04C104.11 40.1867 104.708 39.2053 105.092 38.096C105.518 36.9867 105.732 35.8347 105.732 34.64C105.732 33.4453 105.518 32.2933 105.092 31.184C104.708 30.0747 104.11 29.0933 103.3 28.24C102.532 27.3867 101.593 26.704 100.484 26.192C99.3742 25.68 98.1155 25.424 96.7075 25.424C95.2995 25.424 94.0408 25.68 92.9315 26.192C91.8222 26.704 90.8622 27.3867 90.0515 28.24C89.2835 29.0933 88.6862 30.0747 88.2595 31.184C87.8755 32.2933 87.6835 33.4453 87.6835 34.64ZM162.99 45.776H162.798C161.688 47.5253 160.28 48.8053 158.574 49.616C156.867 50.384 154.99 50.768 152.942 50.768C151.534 50.768 150.147 50.576 148.782 50.192C147.459 49.808 146.264 49.232 145.198 48.464C144.174 47.696 143.342 46.736 142.702 45.584C142.062 44.432 141.742 43.088 141.742 41.552C141.742 39.888 142.04 38.48 142.638 37.328C143.235 36.1333 144.024 35.152 145.006 34.384C146.03 33.5733 147.203 32.9333 148.526 32.464C149.848 31.9947 151.214 31.6533 152.622 31.44C154.072 31.184 155.523 31.0347 156.974 30.992C158.424 30.9067 159.79 30.864 161.07 30.864H162.99V30.032C162.99 28.112 162.328 26.6827 161.006 25.744C159.683 24.7627 157.998 24.272 155.95 24.272C154.328 24.272 152.814 24.5707 151.406 25.168C149.998 25.7227 148.782 26.4907 147.758 27.472L143.726 23.44C145.432 21.6907 147.416 20.432 149.678 19.664C151.982 18.896 154.35 18.512 156.782 18.512C158.958 18.512 160.792 18.768 162.286 19.28C163.779 19.7493 165.016 20.368 165.998 21.136C166.979 21.904 167.726 22.8 168.238 23.824C168.792 24.8053 169.176 25.808 169.39 26.832C169.646 27.856 169.795 28.8587 169.838 29.84C169.88 30.7787 169.902 31.6107 169.902 32.336V50H162.99V45.776ZM162.542 36.24H160.942C159.875 36.24 158.68 36.2827 157.358 36.368C156.035 36.4533 154.776 36.6667 153.582 37.008C152.43 37.3067 151.448 37.776 150.638 38.416C149.827 39.0133 149.422 39.8667 149.422 40.976C149.422 41.7013 149.571 42.32 149.87 42.832C150.211 43.3013 150.638 43.7067 151.15 44.048C151.662 44.3893 152.238 44.6453 152.878 44.816C153.518 44.944 154.158 45.008 154.798 45.008C157.443 45.008 159.384 44.3893 160.622 43.152C161.902 41.872 162.542 40.144 162.542 37.968V36.24ZM207.782 23.568H207.91C208.507 22.288 209.553 21.136 211.046 20.112C212.582 19.0453 214.545 18.512 216.934 18.512C218.982 18.512 220.71 18.8533 222.118 19.536C223.569 20.2187 224.742 21.1147 225.638 22.224C226.534 23.3333 227.174 24.6133 227.558 26.064C227.942 27.5147 228.134 29.0293 228.134 30.608V50H220.454V34.448C220.454 33.5947 220.411 32.656 220.326 31.632C220.241 30.5653 220.006 29.584 219.622 28.688C219.281 27.7493 218.726 26.9813 217.958 26.384C217.19 25.744 216.145 25.424 214.822 25.424C213.542 25.424 212.454 25.6373 211.558 26.064C210.705 26.4907 209.979 27.0667 209.382 27.792C208.827 28.5173 208.422 29.3493 208.166 30.288C207.91 31.2267 207.782 32.208 207.782 33.232V50H200.102V1.616H207.782V23.568ZM244.496 37.328C244.752 39.632 245.648 41.424 247.184 42.704C248.72 43.984 250.576 44.624 252.752 44.624C254.672 44.624 256.272 44.24 257.552 43.472C258.875 42.6613 260.027 41.6587 261.008 40.464L266.512 44.624C264.72 46.8427 262.715 48.4213 260.496 49.36C258.277 50.2987 255.952 50.768 253.52 50.768C251.216 50.768 249.04 50.384 246.992 49.616C244.944 48.848 243.173 47.76 241.68 46.352C240.187 44.944 238.992 43.2587 238.096 41.296C237.243 39.2907 236.816 37.072 236.816 34.64C236.816 32.208 237.243 30.0107 238.096 28.048C238.992 26.0427 240.187 24.336 241.68 22.928C243.173 21.52 244.944 20.432 246.992 19.664C249.04 18.896 251.216 18.512 253.52 18.512C255.653 18.512 257.595 18.896 259.344 19.664C261.136 20.3893 262.651 21.456 263.888 22.864C265.168 24.272 266.149 26.0213 266.832 28.112C267.557 30.16 267.92 32.528 267.92 35.216V37.328H244.496ZM260.24 31.568C260.197 29.3067 259.493 27.536 258.128 26.256C256.763 24.9333 254.864 24.272 252.432 24.272C250.128 24.272 248.293 24.9333 246.928 26.256C245.605 27.5787 244.795 29.3493 244.496 31.568H260.24ZM276.73 1.616H284.41V50H276.73V1.616ZM294.727 19.28H302.023V23.888H302.151C303.26 22.0107 304.754 20.6453 306.631 19.792C308.508 18.9387 310.535 18.512 312.711 18.512C315.058 18.512 317.17 18.9387 319.047 19.792C320.924 20.6027 322.524 21.7333 323.847 23.184C325.17 24.6347 326.172 26.3413 326.855 28.304C327.538 30.2667 327.879 32.3787 327.879 34.64C327.879 36.9013 327.516 39.0133 326.791 40.976C326.066 42.9387 325.042 44.6453 323.719 46.096C322.439 47.5467 320.882 48.6987 319.047 49.552C317.212 50.3627 315.207 50.768 313.031 50.768C311.58 50.768 310.3 50.6187 309.191 50.32C308.082 50.0213 307.1 49.6373 306.247 49.168C305.394 48.6987 304.668 48.208 304.071 47.696C303.474 47.1413 302.983 46.608 302.599 46.096H302.407V64.592H294.727V19.28ZM320.199 34.64C320.199 33.4453 319.986 32.2933 319.559 31.184C319.175 30.0747 318.578 29.0933 317.767 28.24C316.999 27.3867 316.06 26.704 314.951 26.192C313.842 25.68 312.583 25.424 311.175 25.424C309.767 25.424 308.508 25.68 307.399 26.192C306.29 26.704 305.33 27.3867 304.519 28.24C303.751 29.0933 303.154 30.0747 302.727 31.184C302.343 32.2933 302.151 33.4453 302.151 34.64C302.151 35.8347 302.343 36.9867 302.727 38.096C303.154 39.2053 303.751 40.1867 304.519 41.04C305.33 41.8933 306.29 42.576 307.399 43.088C308.508 43.6 309.767 43.856 311.175 43.856C312.583 43.856 313.842 43.6 314.951 43.088C316.06 42.576 316.999 41.8933 317.767 41.04C318.578 40.1867 319.175 39.2053 319.559 38.096C319.986 36.9867 320.199 35.8347 320.199 34.64ZM336.668 1.616H344.348V50H336.668V1.616ZM354.855 19.28H362.535V50H354.855V19.28ZM353.767 8.848C353.767 7.61066 354.215 6.544 355.111 5.648C356.05 4.70933 357.223 4.24 358.631 4.24C360.039 4.24 361.212 4.688 362.151 5.584C363.132 6.43733 363.623 7.52533 363.623 8.848C363.623 10.1707 363.132 11.28 362.151 12.176C361.212 13.0293 360.039 13.456 358.631 13.456C357.223 13.456 356.05 13.008 355.111 12.112C354.215 11.1733 353.767 10.0853 353.767 8.848ZM372.852 19.28H380.148V24.208H380.276C381.001 22.672 382.111 21.3493 383.604 20.24C385.097 19.088 387.124 18.512 389.684 18.512C391.732 18.512 393.46 18.8533 394.868 19.536C396.319 20.2187 397.492 21.1147 398.388 22.224C399.284 23.3333 399.924 24.6133 400.308 26.064C400.692 27.5147 400.884 29.0293 400.884 30.608V50H393.204V34.448C393.204 33.5947 393.161 32.656 393.076 31.632C392.991 30.5653 392.756 29.584 392.372 28.688C392.031 27.7493 391.476 26.9813 390.708 26.384C389.94 25.744 388.895 25.424 387.572 25.424C386.292 25.424 385.204 25.6373 384.308 26.064C383.455 26.4907 382.729 27.0667 382.132 27.792C381.577 28.5173 381.172 29.3493 380.916 30.288C380.66 31.2267 380.532 32.208 380.532 33.232V50H372.852V19.28ZM417.246 37.328C417.502 39.632 418.398 41.424 419.934 42.704C421.47 43.984 423.326 44.624 425.502 44.624C427.422 44.624 429.022 44.24 430.302 43.472C431.625 42.6613 432.777 41.6587 433.758 40.464L439.262 44.624C437.47 46.8427 435.465 48.4213 433.246 49.36C431.027 50.2987 428.702 50.768 426.27 50.768C423.966 50.768 421.79 50.384 419.742 49.616C417.694 48.848 415.923 47.76 414.43 46.352C412.937 44.944 411.742 43.2587 410.846 41.296C409.993 39.2907 409.566 37.072 409.566 34.64C409.566 32.208 409.993 30.0107 410.846 28.048C411.742 26.0427 412.937 24.336 414.43 22.928C415.923 21.52 417.694 20.432 419.742 19.664C421.79 18.896 423.966 18.512 426.27 18.512C428.403 18.512 430.345 18.896 432.094 19.664C433.886 20.3893 435.401 21.456 436.638 22.864C437.918 24.272 438.899 26.0213 439.582 28.112C440.307 30.16 440.67 32.528 440.67 35.216V37.328H417.246ZM432.99 31.568C432.947 29.3067 432.243 27.536 430.878 26.256C429.513 24.9333 427.614 24.272 425.182 24.272C422.878 24.272 421.043 24.9333 419.678 26.256C418.355 27.5787 417.545 29.3493 417.246 31.568H432.99Z" fill="url(#paint0_linear)"/>
<defs>
<linearGradient id="paint0_linear" x1="-59" y1="30" x2="-7.98354" y2="182.772" gradientUnits="userSpaceOnUse">
<stop stop-color="#ED2125"/>
<stop offset="0.996342" stop-color="#96CDD2"/>
</linearGradient>
</defs>
</svg>
