<svg width="515" height="82" viewBox="0 0 515 82" fill="none" xmlns="http://www.w3.org/2000/svg">
<path d="M50.9595 36.808H44.6235V30.28H50.9595V25.928C50.9595 23.7947 51.1088 21.8747 51.4075 20.168C51.7062 18.4187 52.2608 16.9253 53.0715 15.688C53.9248 14.4507 55.0982 13.512 56.5915 12.872C58.0848 12.1893 60.0262 11.848 62.4155 11.848C64.1648 11.848 65.7862 11.9973 67.2795 12.296L66.7675 18.824C66.2128 18.696 65.6795 18.5893 65.1675 18.504C64.6555 18.4187 64.1222 18.376 63.5675 18.376C62.5008 18.376 61.6475 18.5467 61.0075 18.888C60.3675 19.2293 59.8555 19.6987 59.4715 20.296C59.1302 20.8507 58.8955 21.512 58.7675 22.28C58.6822 23.048 58.6395 23.8587 58.6395 24.712V30.28H65.7435V36.808H58.6395V61H50.9595V36.808ZM73.3955 30.28H81.0755V61H73.3955V30.28ZM72.3075 19.848C72.3075 18.6107 72.7555 17.544 73.6515 16.648C74.5902 15.7093 75.7635 15.24 77.1715 15.24C78.5795 15.24 79.7528 15.688 80.6915 16.584C81.6728 17.4373 82.1635 18.5253 82.1635 19.848C82.1635 21.1707 81.6728 22.28 80.6915 23.176C79.7528 24.0293 78.5795 24.456 77.1715 24.456C75.7635 24.456 74.5902 24.008 73.6515 23.112C72.7555 22.1733 72.3075 21.0853 72.3075 19.848ZM90.1485 30.28H97.4445V35.208H97.5725C98.2978 33.672 99.4072 32.3493 100.9 31.24C102.394 30.088 104.42 29.512 106.98 29.512C109.028 29.512 110.756 29.8533 112.164 30.536C113.615 31.2187 114.788 32.1147 115.684 33.224C116.58 34.3333 117.22 35.6133 117.604 37.064C117.988 38.5147 118.18 40.0293 118.18 41.608V61H110.5V45.448C110.5 44.5947 110.458 43.656 110.372 42.632C110.287 41.5653 110.052 40.584 109.668 39.688C109.327 38.7493 108.772 37.9813 108.004 37.384C107.236 36.744 106.191 36.424 104.868 36.424C103.588 36.424 102.5 36.6373 101.604 37.064C100.751 37.4907 100.026 38.0667 99.4285 38.792C98.8738 39.5173 98.4685 40.3493 98.2125 41.288C97.9565 42.2267 97.8285 43.208 97.8285 44.232V61H90.1485V30.28ZM149.939 56.392H149.811C148.701 58.2693 147.208 59.6347 145.331 60.488C143.453 61.3413 141.427 61.768 139.251 61.768C136.861 61.768 134.728 61.3627 132.851 60.552C131.016 59.6987 129.437 58.5467 128.115 57.096C126.792 55.6453 125.789 53.9387 125.107 51.976C124.424 50.0133 124.083 47.9013 124.083 45.64C124.083 43.3787 124.445 41.2667 125.171 39.304C125.896 37.3413 126.899 35.6347 128.179 34.184C129.501 32.7333 131.08 31.6027 132.915 30.792C134.749 29.9387 136.755 29.512 138.931 29.512C140.381 29.512 141.661 29.6613 142.771 29.96C143.88 30.2587 144.861 30.6427 145.715 31.112C146.568 31.5813 147.293 32.0933 147.891 32.648C148.488 33.16 148.979 33.672 149.363 34.184H149.555V12.616H157.235V61H149.939V56.392ZM131.763 45.64C131.763 46.8347 131.955 47.9867 132.339 49.096C132.765 50.2053 133.363 51.1867 134.131 52.04C134.941 52.8933 135.901 53.576 137.011 54.088C138.12 54.6 139.379 54.856 140.787 54.856C142.195 54.856 143.453 54.6 144.563 54.088C145.672 53.576 146.611 52.8933 147.379 52.04C148.189 51.1867 148.787 50.2053 149.171 49.096C149.597 47.9867 149.811 46.8347 149.811 45.64C149.811 44.4453 149.597 43.2933 149.171 42.184C148.787 41.0747 148.189 40.0933 147.379 39.24C146.611 38.3867 145.672 37.704 144.563 37.192C143.453 36.68 142.195 36.424 140.787 36.424C139.379 36.424 138.12 36.68 137.011 37.192C135.901 37.704 134.941 38.3867 134.131 39.24C133.363 40.0933 132.765 41.0747 132.339 42.184C131.955 43.2933 131.763 44.4453 131.763 45.64ZM205.732 56.776H205.54C204.431 58.5253 203.023 59.8053 201.316 60.616C199.61 61.384 197.732 61.768 195.684 61.768C194.276 61.768 192.89 61.576 191.524 61.192C190.202 60.808 189.007 60.232 187.94 59.464C186.916 58.696 186.084 57.736 185.444 56.584C184.804 55.432 184.484 54.088 184.484 52.552C184.484 50.888 184.783 49.48 185.38 48.328C185.978 47.1333 186.767 46.152 187.748 45.384C188.772 44.5733 189.946 43.9333 191.268 43.464C192.591 42.9947 193.956 42.6533 195.364 42.44C196.815 42.184 198.266 42.0347 199.716 41.992C201.167 41.9067 202.532 41.864 203.812 41.864H205.732V41.032C205.732 39.112 205.071 37.6827 203.748 36.744C202.426 35.7627 200.74 35.272 198.692 35.272C197.071 35.272 195.556 35.5707 194.148 36.168C192.74 36.7227 191.524 37.4907 190.5 38.472L186.468 34.44C188.175 32.6907 190.159 31.432 192.42 30.664C194.724 29.896 197.092 29.512 199.524 29.512C201.7 29.512 203.535 29.768 205.028 30.28C206.522 30.7493 207.759 31.368 208.74 32.136C209.722 32.904 210.468 33.8 210.98 34.824C211.535 35.8053 211.919 36.808 212.132 37.832C212.388 38.856 212.538 39.8587 212.58 40.84C212.623 41.7787 212.644 42.6107 212.644 43.336V61H205.732V56.776ZM205.284 47.24H203.684C202.618 47.24 201.423 47.2827 200.1 47.368C198.778 47.4533 197.519 47.6667 196.324 48.008C195.172 48.3067 194.191 48.776 193.38 49.416C192.57 50.0133 192.164 50.8667 192.164 51.976C192.164 52.7013 192.314 53.32 192.612 53.832C192.954 54.3013 193.38 54.7067 193.892 55.048C194.404 55.3893 194.98 55.6453 195.62 55.816C196.26 55.944 196.9 56.008 197.54 56.008C200.186 56.008 202.127 55.3893 203.364 54.152C204.644 52.872 205.284 51.144 205.284 48.968V47.24ZM249.317 34.568H249.445C250.042 33.288 251.088 32.136 252.581 31.112C254.117 30.0453 256.08 29.512 258.469 29.512C260.517 29.512 262.245 29.8533 263.653 30.536C265.104 31.2187 266.277 32.1147 267.173 33.224C268.069 34.3333 268.709 35.6133 269.093 37.064C269.477 38.5147 269.669 40.0293 269.669 41.608V61H261.989V45.448C261.989 44.5947 261.946 43.656 261.861 42.632C261.776 41.5653 261.541 40.584 261.157 39.688C260.816 38.7493 260.261 37.9813 259.493 37.384C258.725 36.744 257.68 36.424 256.357 36.424C255.077 36.424 253.989 36.6373 253.093 37.064C252.24 37.4907 251.514 38.0667 250.917 38.792C250.362 39.5173 249.957 40.3493 249.701 41.288C249.445 42.2267 249.317 43.208 249.317 44.232V61H241.637V12.616H249.317V34.568ZM283.507 48.328C283.763 50.632 284.659 52.424 286.195 53.704C287.731 54.984 289.587 55.624 291.763 55.624C293.683 55.624 295.283 55.24 296.563 54.472C297.886 53.6613 299.038 52.6587 300.019 51.464L305.523 55.624C303.731 57.8427 301.726 59.4213 299.507 60.36C297.288 61.2987 294.963 61.768 292.531 61.768C290.227 61.768 288.051 61.384 286.003 60.616C283.955 59.848 282.184 58.76 280.691 57.352C279.198 55.944 278.003 54.2587 277.107 52.296C276.254 50.2907 275.827 48.072 275.827 45.64C275.827 43.208 276.254 41.0107 277.107 39.048C278.003 37.0427 279.198 35.336 280.691 33.928C282.184 32.52 283.955 31.432 286.003 30.664C288.051 29.896 290.227 29.512 292.531 29.512C294.664 29.512 296.606 29.896 298.355 30.664C300.147 31.3893 301.662 32.456 302.899 33.864C304.179 35.272 305.16 37.0213 305.843 39.112C306.568 41.16 306.931 43.528 306.931 46.216V48.328H283.507ZM299.251 42.568C299.208 40.3067 298.504 38.536 297.139 37.256C295.774 35.9333 293.875 35.272 291.443 35.272C289.139 35.272 287.304 35.9333 285.939 37.256C284.616 38.5787 283.806 40.3493 283.507 42.568H299.251ZM313.857 12.616H321.537V61H313.857V12.616ZM330.61 30.28H337.906V34.888H338.034C339.143 33.0107 340.637 31.6453 342.514 30.792C344.391 29.9387 346.418 29.512 348.594 29.512C350.941 29.512 353.053 29.9387 354.93 30.792C356.807 31.6027 358.407 32.7333 359.73 34.184C361.053 35.6347 362.055 37.3413 362.738 39.304C363.421 41.2667 363.762 43.3787 363.762 45.64C363.762 47.9013 363.399 50.0133 362.674 51.976C361.949 53.9387 360.925 55.6453 359.602 57.096C358.322 58.5467 356.765 59.6987 354.93 60.552C353.095 61.3627 351.09 61.768 348.914 61.768C347.463 61.768 346.183 61.6187 345.074 61.32C343.965 61.0213 342.983 60.6373 342.13 60.168C341.277 59.6987 340.551 59.208 339.954 58.696C339.357 58.1413 338.866 57.608 338.482 57.096H338.29V75.592H330.61V30.28ZM356.082 45.64C356.082 44.4453 355.869 43.2933 355.442 42.184C355.058 41.0747 354.461 40.0933 353.65 39.24C352.882 38.3867 351.943 37.704 350.834 37.192C349.725 36.68 348.466 36.424 347.058 36.424C345.65 36.424 344.391 36.68 343.282 37.192C342.173 37.704 341.213 38.3867 340.402 39.24C339.634 40.0933 339.037 41.0747 338.61 42.184C338.226 43.2933 338.034 44.4453 338.034 45.64C338.034 46.8347 338.226 47.9867 338.61 49.096C339.037 50.2053 339.634 51.1867 340.402 52.04C341.213 52.8933 342.173 53.576 343.282 54.088C344.391 54.6 345.65 54.856 347.058 54.856C348.466 54.856 349.725 54.6 350.834 54.088C351.943 53.576 352.882 52.8933 353.65 52.04C354.461 51.1867 355.058 50.2053 355.442 49.096C355.869 47.9867 356.082 46.8347 356.082 45.64ZM370.027 12.616H377.707V61H370.027V12.616ZM386.268 30.28H393.948V61H386.268V30.28ZM385.18 19.848C385.18 18.6107 385.628 17.544 386.524 16.648C387.462 15.7093 388.636 15.24 390.044 15.24C391.452 15.24 392.625 15.688 393.564 16.584C394.545 17.4373 395.036 18.5253 395.036 19.848C395.036 21.1707 394.545 22.28 393.564 23.176C392.625 24.0293 391.452 24.456 390.044 24.456C388.636 24.456 387.462 24.008 386.524 23.112C385.628 22.1733 385.18 21.0853 385.18 19.848ZM403.661 30.28H410.957V35.208H411.085C411.81 33.672 412.919 32.3493 414.413 31.24C415.906 30.088 417.933 29.512 420.493 29.512C422.541 29.512 424.269 29.8533 425.677 30.536C427.127 31.2187 428.301 32.1147 429.197 33.224C430.093 34.3333 430.733 35.6133 431.117 37.064C431.501 38.5147 431.693 40.0293 431.693 41.608V61H424.013V45.448C424.013 44.5947 423.97 43.656 423.885 42.632C423.799 41.5653 423.565 40.584 423.181 39.688C422.839 38.7493 422.285 37.9813 421.517 37.384C420.749 36.744 419.703 36.424 418.381 36.424C417.101 36.424 416.013 36.6373 415.117 37.064C414.263 37.4907 413.538 38.0667 412.941 38.792C412.386 39.5173 411.981 40.3493 411.725 41.288C411.469 42.2267 411.341 43.208 411.341 44.232V61H403.661V30.28ZM444.891 48.328C445.147 50.632 446.043 52.424 447.579 53.704C449.115 54.984 450.971 55.624 453.147 55.624C455.067 55.624 456.667 55.24 457.947 54.472C459.269 53.6613 460.421 52.6587 461.403 51.464L466.907 55.624C465.115 57.8427 463.109 59.4213 460.891 60.36C458.672 61.2987 456.347 61.768 453.915 61.768C451.611 61.768 449.435 61.384 447.387 60.616C445.339 59.848 443.568 58.76 442.075 57.352C440.581 55.944 439.387 54.2587 438.491 52.296C437.637 50.2907 437.211 48.072 437.211 45.64C437.211 43.208 437.637 41.0107 438.491 39.048C439.387 37.0427 440.581 35.336 442.075 33.928C443.568 32.52 445.339 31.432 447.387 30.664C449.435 29.896 451.611 29.512 453.915 29.512C456.048 29.512 457.989 29.896 459.739 30.664C461.531 31.3893 463.045 32.456 464.283 33.864C465.563 35.272 466.544 37.0213 467.227 39.112C467.952 41.16 468.315 43.528 468.315 46.216V48.328H444.891ZM460.635 42.568C460.592 40.3067 459.888 38.536 458.523 37.256C457.157 35.9333 455.259 35.272 452.827 35.272C450.523 35.272 448.688 35.9333 447.323 37.256C446 38.5787 445.189 40.3493 444.891 42.568H460.635Z" fill="url(#paint0_linear)"/>
<defs>
<linearGradient id="paint0_linear" x1="42" y1="68" x2="101.82" y2="200.634" gradientUnits="userSpaceOnUse">
<stop stop-color="#ED2125"/>
<stop offset="1" stop-color="#8AC7CC"/>
<stop offset="1" stop-color="#8AC7CC"/>
</linearGradient>
</defs>
</svg>
